<?xml version="1.0"?><svg width="793.7007874015749" height="1122.5196850393702" xmlns="http://www.w3.org/2000/svg">
 <title>shopping cart</title>

 <metadata id="metadata7">image/svg+xmlshopping cartcartsupermarketshoppingshopping cartSergio Luiz Araujo Silva</metadata>
 <g>
  <title>Layer 1</title>
  <g id="layer1">
   <path fill="#000000" stroke-width="15.5" id="path3847" d="m765.178345,17.955643c-1.200378,0.017117 -2.432617,0.12302 -3.61145,0.33419c-0.021423,0.004274 -0.044861,-0.004278 -0.066345,0l-119.007813,20.324924c-7.569397,1.298653 -13.915161,6.488792 -16.715576,13.639099a5.410795,5.410795 0 0 0 0,0.06675l-55.223999,141.605267l-538.944242,13.440109c-6.19805,0.154053 -12.017397,2.952469 -16.046015,7.620789c-4.030746,4.668335 -5.969071,10.874893 -5.216018,17.049362l29.751414,246.104889c1.228081,10.325104 9.758144,18.512848 20.12595,19.321533l384.233086,30.555878l76.152161,59.905029a5.410795,5.410795 0 0 0 0.267456,0.198975c0.081238,0.0578 0.183899,0.079163 0.267456,0.134827c0.094177,0.062012 0.173157,0.139038 0.267395,0.198914c13.897949,10.374268 17.342529,24.507629 15.378479,32.359436c-1.118835,4.47583 -2.828369,7.764099 -6.886963,10.297241c-4.058533,2.533142 -11.069458,4.366699 -23.065582,3.677795a5.410795,5.410795 0 0 0 -0.134766,0c-0.385132,-0.012878 -0.819397,-0.008545 -1.204407,0c-0.06427,0 -0.136932,-0.002197 -0.201172,0l-458.245815,1.337158l-0.066326,0c-12.043068,-0.077087 -22.177713,10.023376 -22.130651,22.062134c0.047112,12.040955 10.222387,22.102783 22.26333,21.929565c0.023521,0 0.044888,0 0.06628,0l33.497612,-0.066406c-12.447372,7.933228 -20.793442,21.81189 -20.793442,37.575562c0,24.513977 20.078918,44.592834 44.594994,44.592834c24.51403,0 44.592918,-20.078857 44.592918,-44.592834c0,-15.849182 -8.367432,-29.864929 -20.926056,-37.776672l377.348328,-1.069702c-13.594177,7.66571 -22.864563,22.216248 -22.864563,38.846375c0,24.513977 20.078918,44.592834 44.592926,44.592834c24.515991,0 44.595032,-20.078857 44.595032,-44.592834c0,-21.291992 -15.123962,-39.23999 -35.166443,-43.591614c18.949158,-6.705139 33.506165,-20.528259 42.521851,-41.653259a5.410795,5.410795 0 0 0 0.33374,-0.802307c6.910583,-27.63562 -5.346497,-57.677917 -30.62207,-77.221985a5.410795,5.410795 0 0 0 -0.201172,-0.201111c-0.062073,-0.047058 -0.072815,-0.151855 -0.132568,-0.198914a5.410795,5.410795 0 0 0 -0.733948,-0.735962l-53.955231,-42.320801l168.282013,-431.036255l106.772034,-18.185471c0.021423,-0.00428 0.047119,0.004269 0.066284,0c11.217346,-1.803352 19.419922,-12.257427 18.452942,-23.601093c-0.967041,-11.365267 -10.870544,-20.27914 -22.263306,-20.124249l0.002258,0zm-210.872253,209.934265l-31.022278,79.562393l-40.44873,0l0,-77.756714l71.471008,-1.805679zm-86.915833,2.207901l0,77.354492l-74.680176,0l0,-75.482452l74.680176,-1.87204zm-90.124939,2.20578l0,75.148712l-74.680237,0l0,-73.276672l74.680237,-1.87204zm-90.125031,2.272125l0,72.876587l-74.680206,0l0,-71.004532l74.680206,-1.872055zm-90.124985,2.274216l0,70.602371l-74.680214,0l0,-68.730316l74.680214,-1.872055zm-90.125046,2.205841l0,68.39653l-54.757446,0l-8.08931,-66.791946l62.846756,-1.604584zm-52.885426,83.772934l52.885426,0l0,69.86853l-44.460194,0l-8.425232,-69.86853zm68.330257,0l74.680214,0l0,69.86853l-74.680214,0l0,-69.86853zm90.124992,0l74.680206,0l0,69.86853l-74.680206,0l0,-69.86853zm90.125,0l74.680237,0l0,69.86853l-74.680237,0l0,-69.86853zm90.125,0l74.680176,0l0,69.86853l-74.680176,0l0,-69.86853zm90.125,0l34.49884,0l-27.278198,69.86853l-7.220642,0l0,-69.86853zm-418.532997,85.244843l42.588173,0l0,50.144806l-36.905762,-2.941742l-5.682411,-47.203064zm58.033005,0l74.680214,0l0,57.297089l-74.680214,-5.949921l0,-51.347168zm90.124992,0l74.680206,0l0,64.451385l-74.680206,-5.883484l0,-58.567902zm90.125,0l74.680237,0l0,71.672119l-74.680237,-5.94986l0,-65.72226zm90.125,0l74.680176,0l0,42.521881l-14.17392,36.304657c-1.839935,-0.892273 -3.846771,-1.43988 -5.883514,-1.604584l-54.622742,-4.345337l0,-72.876617zm90.125,0l1.136108,0l-1.136108,3.142883l0,-3.142883zm-378.351707,283.34668c14.571945,0 26.208488,11.636475 26.208488,26.208435c0,14.571838 -11.636543,26.139893 -26.208488,26.139893c-14.571884,0 -26.20845,-11.568054 -26.20845,-26.139893c0,-14.57196 11.636566,-26.208435 26.20845,-26.208435zm422.745567,0c14.572021,0 26.208435,11.636475 26.208435,26.208435c0,14.571838 -11.636414,26.139893 -26.208435,26.139893c-14.571777,0 -26.208405,-11.568054 -26.208405,-26.139893c0,-14.57196 11.636627,-26.208435 26.208405,-26.208435zm-422.745567,12.434448c-7.915924,0 -14.240295,6.32428 -14.240295,14.240295c0,7.918213 6.324371,14.174011 14.240295,14.174011c7.916031,0 14.24028,-6.255798 14.24028,-14.174011c0,-7.916016 -6.324249,-14.240295 -14.24028,-14.240295zm422.745567,0c-7.915894,0 -14.240112,6.32428 -14.240112,14.240295c0,7.918213 6.324219,14.174011 14.240112,14.174011c7.916077,0 14.240417,-6.255798 14.240417,-14.174011c0,-7.916016 -6.324341,-14.240295 -14.240417,-14.240295z"/>
  </g>
 </g>
</svg>